# xmcd
#
# Track frame offsets: 
#        150
#        16280
#        50783
#        72300
#        105380
#
# Disc length: 1786 seconds
#
# Revision: 0
# Processed by: cddbd v1.5.2PL0 Copyright (c) Steve Scherf et al.
# Submitted via: ExactAudioCopy v0.99pb5
#
DISCID=3d06f805
DTITLE=Beyoncé - Heat
DYEAR=2010
DGENRE=R&B
TTITLE0=Fever
TTITLE1=At Last (Karmatronic Remix)
TTITLE2=Broken-Hearted Girl (Catalyst Remix)
TTITLE3=Satellites (Karmatronic Remix)
TTITLE4=Smash into you (Lost Daze Remix)
EXTD=
EXTT0=
EXTT1=
EXTT2=
EXTT3=
EXTT4=
PLAYORDER=
